<?xml version="1.0" encoding="UTF-8" standalone="no"?><svg xmlns="http://www.w3.org/2000/svg" xmlns:xlink="http://www.w3.org/1999/xlink" contentStyleType="text/css" height="200px" preserveAspectRatio="none" style="width:1268px;height:200px;background:#FFFFFF;" version="1.1" viewBox="0 0 1268 200" width="1268px" zoomAndPan="magnify"><defs/><g><rect fill="#F1F1F1" height="121.7813" rx="5" ry="5" style="stroke:#F1F1F1;stroke-width:1.5;" width="487" x="10" y="39.5"/><text fill="#000000" font-family="sans-serif" font-size="14" font-weight="bold" lengthAdjust="spacing" textLength="77" x="15" y="54.4951">@context</text><text fill="#000000" font-family="sans-serif" font-size="14" lengthAdjust="spacing" textLength="12" x="168" y="54.4951">   </text><line style="stroke:#000000;stroke-width:1.0;" x1="163" x2="163" y1="39.5" y2="59.7969"/><line style="stroke:#000000;stroke-width:1.0;" x1="10" x2="497" y1="59.7969" y2="59.7969"/><text fill="#000000" font-family="sans-serif" font-size="14" font-weight="bold" lengthAdjust="spacing" textLength="15" x="15" y="74.792">id</text><text fill="#000000" font-family="sans-serif" font-size="14" lengthAdjust="spacing" textLength="287" x="168" y="74.792">https://regulator/credentials/status/001</text><line style="stroke:#000000;stroke-width:1.0;" x1="163" x2="163" y1="59.7969" y2="80.0938"/><line style="stroke:#000000;stroke-width:1.0;" x1="10" x2="497" y1="80.0938" y2="80.0938"/><text fill="#000000" font-family="sans-serif" font-size="14" font-weight="bold" lengthAdjust="spacing" textLength="36" x="15" y="95.0889">type</text><text fill="#000000" font-family="sans-serif" font-size="14" lengthAdjust="spacing" textLength="12" x="168" y="95.0889">   </text><line style="stroke:#000000;stroke-width:1.0;" x1="163" x2="163" y1="80.0938" y2="100.3906"/><line style="stroke:#000000;stroke-width:1.0;" x1="10" x2="497" y1="100.3906" y2="100.3906"/><text fill="#000000" font-family="sans-serif" font-size="14" font-weight="bold" lengthAdjust="spacing" textLength="49" x="15" y="115.3857">issuer</text><text fill="#000000" font-family="sans-serif" font-size="14" lengthAdjust="spacing" textLength="324" x="168" y="115.3857">did:cosmos:elesto:example-credential-issuer</text><line style="stroke:#000000;stroke-width:1.0;" x1="163" x2="163" y1="100.3906" y2="120.6875"/><line style="stroke:#000000;stroke-width:1.0;" x1="10" x2="497" y1="120.6875" y2="120.6875"/><text fill="#000000" font-family="sans-serif" font-size="14" font-weight="bold" lengthAdjust="spacing" textLength="109" x="15" y="135.6826">issuanceDate</text><text fill="#000000" font-family="sans-serif" font-size="14" lengthAdjust="spacing" textLength="161" x="168" y="135.6826">2020-04-05T14:27:40Z</text><line style="stroke:#000000;stroke-width:1.0;" x1="163" x2="163" y1="120.6875" y2="140.9844"/><line style="stroke:#000000;stroke-width:1.0;" x1="10" x2="497" y1="140.9844" y2="140.9844"/><text fill="#000000" font-family="sans-serif" font-size="14" font-weight="bold" lengthAdjust="spacing" textLength="143" x="15" y="155.9795">credentialSubject</text><text fill="#000000" font-family="sans-serif" font-size="14" lengthAdjust="spacing" textLength="12" x="168" y="155.9795">   </text><line style="stroke:#000000;stroke-width:1.0;" x1="163" x2="163" y1="140.9844" y2="161.2813"/><rect fill="none" height="121.7813" rx="5" ry="5" style="stroke:#000000;stroke-width:1.5;" width="487" x="10" y="39.5"/><rect fill="#F1F1F1" height="40.5938" rx="5" ry="5" style="stroke:#F1F1F1;stroke-width:1.5;" width="321" x="734.5" y="10"/><text fill="#000000" font-family="sans-serif" font-size="14" lengthAdjust="spacing" textLength="288" x="739.5" y="24.9951">https://www.w3.org/2018/credentials/v1</text><line style="stroke:#000000;stroke-width:1.0;" x1="734.5" x2="1055.5" y1="30.2969" y2="30.2969"/><text fill="#000000" font-family="sans-serif" font-size="14" lengthAdjust="spacing" textLength="311" x="739.5" y="45.292">https://w3id.org/vc-revocation-list-2020/v1</text><rect fill="none" height="40.5938" rx="5" ry="5" style="stroke:#000000;stroke-width:1.5;" width="321" x="734.5" y="10"/><rect fill="#F1F1F1" height="40.5938" rx="5" ry="5" style="stroke:#F1F1F1;stroke-width:1.5;" width="226" x="782" y="69"/><text fill="#000000" font-family="sans-serif" font-size="14" lengthAdjust="spacing" textLength="145" x="787" y="83.9951">VerifiableCredential</text><line style="stroke:#000000;stroke-width:1.0;" x1="782" x2="1008" y1="89.2969" y2="89.2969"/><text fill="#000000" font-family="sans-serif" font-size="14" lengthAdjust="spacing" textLength="216" x="787" y="104.292">RevocationList2020Credential</text><rect fill="none" height="40.5938" rx="5" ry="5" style="stroke:#000000;stroke-width:1.5;" width="226" x="782" y="69"/><rect fill="#F1F1F1" height="60.8906" rx="5" ry="5" style="stroke:#F1F1F1;stroke-width:1.5;" width="722" x="534" y="128"/><text fill="#000000" font-family="sans-serif" font-size="14" font-weight="bold" lengthAdjust="spacing" textLength="15" x="539" y="142.9951">id</text><text fill="#000000" font-family="sans-serif" font-size="14" lengthAdjust="spacing" textLength="321" x="647" y="142.9951">https://regulator/credentials/status/001#list</text><line style="stroke:#000000;stroke-width:1.0;" x1="642" x2="642" y1="128" y2="148.2969"/><line style="stroke:#000000;stroke-width:1.0;" x1="534" x2="1256" y1="148.2969" y2="148.2969"/><text fill="#000000" font-family="sans-serif" font-size="14" font-weight="bold" lengthAdjust="spacing" textLength="36" x="539" y="163.292">type</text><text fill="#000000" font-family="sans-serif" font-size="14" lengthAdjust="spacing" textLength="141" x="647" y="163.292">RevocationList2020</text><line style="stroke:#000000;stroke-width:1.0;" x1="642" x2="642" y1="148.2969" y2="168.5938"/><line style="stroke:#000000;stroke-width:1.0;" x1="534" x2="1256" y1="168.5938" y2="168.5938"/><text fill="#000000" font-family="sans-serif" font-size="14" font-weight="bold" lengthAdjust="spacing" textLength="98" x="539" y="183.5889">encodedList</text><text fill="#000000" font-family="sans-serif" font-size="14" lengthAdjust="spacing" textLength="604" x="647" y="183.5889">H4sIAAAAAAAAA-3BMQEAAADCoPVPbQsvoAAAAAAAAAAAAAAAAP4GcwM92tQwAAA</text><line style="stroke:#000000;stroke-width:1.0;" x1="642" x2="642" y1="168.5938" y2="188.8906"/><rect fill="none" height="60.8906" rx="5" ry="5" style="stroke:#000000;stroke-width:1.5;" width="722" x="534" y="128"/><path d="M485,49.5 L498,49.5 C573.3033,49.5 656.5591,46.0385 727.2597,42.0705 " fill="none" style="stroke:#000000;stroke-width:1.0;stroke-dasharray:3.0,3.0;"/><path d="M727.4339,45.1414 L729.5629,41.9398 L727.0854,38.9995 L734.9371,41.6348 L727.4339,45.1414 " fill="#000000" style="stroke:#000000;stroke-width:1.0;"/><ellipse cx="485" cy="49.5" fill="#000000" rx="3" ry="3" style="stroke:#000000;stroke-width:1.0;"/><path d="M485,89.5 L498,89.5 C590.8598,89.5 695.9526,89.5 774.6015,89.5 " fill="none" style="stroke:#000000;stroke-width:1.0;stroke-dasharray:3.0,3.0;"/><path d="M774.6015,92.5109 L776.8597,89.5 L774.6015,86.4891 L782.1288,89.5 L774.6015,92.5109 " fill="#000000" style="stroke:#000000;stroke-width:1.0;"/><ellipse cx="485" cy="89.5" fill="#000000" rx="3" ry="3" style="stroke:#000000;stroke-width:1.0;"/><path d="M485,151.5 L498,151.5 C507.439,151.5 517.0041,151.5201 526.6549,151.5581 " fill="none" style="stroke:#000000;stroke-width:1.0;stroke-dasharray:3.0,3.0;"/><path d="M526.6412,154.661 L528.9821,151.5684 L526.6686,148.4552 L534.4122,151.5924 L526.6412,154.661 " fill="#000000" style="stroke:#000000;stroke-width:1.0;"/><ellipse cx="485" cy="151.5" fill="#000000" rx="3" ry="3" style="stroke:#000000;stroke-width:1.0;"/><!--MD5=[d510c98dbb07367e40c23295a1b4ef77]
@startjson
{
  "@context": [
    "https://www.w3.org/2018/credentials/v1",
    "https://w3id.org/vc-revocation-list-2020/v1"
  ],
  "id": "https://regulator/credentials/status/001",
  "type": ["VerifiableCredential", "RevocationList2020Credential"],
  "issuer": "did:cosmos:elesto:example-credential-issuer",
  "issuanceDate": "2020-04-05T14:27:40Z",
  "credentialSubject": {
    "id": "https://regulator/credentials/status/001#list",
    "type": "RevocationList2020",
    "encodedList": "H4sIAAAAAAAAA-3BMQEAAADCoPVPbQsvoAAAAAAAAAAAAAAAAP4GcwM92tQwAAA"
  }
}
@endjson

PlantUML version 1.2022.13beta1(Unknown compile time)
(GPL source distribution)
Java Runtime: Java(TM) SE Runtime Environment
JVM: Java HotSpot(TM) 64-Bit Server VM
Default Encoding: UTF-8
Language: en
Country: US
--></g></svg>